<?xml version="1.0" encoding="utf-8"?>
<!-- Generator: Adobe Illustrator 26.3.1, SVG Export Plug-In . SVG Version: 6.00 Build 0)  -->
<svg version="1.1" id="Capa_1" xmlns="http://www.w3.org/2000/svg" xmlns:xlink="http://www.w3.org/1999/xlink" x="0px" y="0px"
	 viewBox="0 0 201.6 201.6" style="enable-background:new 0 0 201.6 201.6;" xml:space="preserve">
<style type="text/css">
	.st0{fill:#010002;}
</style>
<g>
	<g>
		<path class="st0" d="M185.9,97.9l-13.8,13.8H97l14.4,21.2l0,0l12.7,18.7H160l-3.7,12h-29.2v0.1c-3.9,0.3-7.1,3.6-7.1,7.6
			c0,4.2,3.4,7.7,7.7,7.7c4.2,0,7.7-3.4,7.7-7.7c0-1.5-0.5-2.9-1.2-4.1h12.8c-0.8,1.2-1.2,2.6-1.2,4.1c0,4.2,3.4,7.7,7.7,7.7
			c4.2,0,7.7-3.4,7.7-7.7c0-1.9-0.7-3.6-1.9-4.9l16.2-52.7l12.1-12.1h14.2v-3.5L185.9,97.9L185.9,97.9L185.9,97.9z M126,147.9
			l-9.5-13.9H154v-3.5h-39.9l-10.4-15.3h67.4L161,147.9C161,147.9,126,147.9,126,147.9z M131.8,171.1c0,2.3-1.8,4.1-4.1,4.1
			c-2.3,0-4.1-1.8-4.1-4.1c0-2.3,1.8-4.1,4.1-4.1C130,167,131.8,168.8,131.8,171.1z M153.3,175.2c-2.3,0-4.1-1.8-4.1-4.1
			c0-2.3,1.8-4.1,4.1-4.1c2.3,0,4.1,1.9,4.1,4.1C157.5,173.4,155.6,175.2,153.3,175.2z"/>
	</g>
</g>
</svg>
