<?xml version="1.0" encoding="utf-8"?>
<!-- Generator: Adobe Illustrator 26.3.1, SVG Export Plug-In . SVG Version: 6.00 Build 0)  -->
<svg version="1.1" id="Layer_1" xmlns:svgjs="http://svgjs.dev/svgjs"
	 xmlns="http://www.w3.org/2000/svg" xmlns:xlink="http://www.w3.org/1999/xlink" x="0px" y="0px" viewBox="0 0 1000 1012"
	 style="enable-background:new 0 0 1000 1012;" xml:space="preserve">
<style type="text/css">
	.st0{fill:#4900A2;}
	.st1{fill:none;}
</style>
<g transform="matrix(1,0,0,1,0.883934426229473,0.40971659919023296)">
	<g id="tight-bounds" transform="matrix(1,0,0,1,-0.21567999999999188,-0.09999999999999432)">
		<g>
			<g transform="matrix(1,0,0,1,0,92.07811834710743)">
				<g>
					<g>
						<g>
							<g>
								<g>
									<g transform="matrix(1,0,0,1,0,0)">
										<path id="text-0" class="st0" d="M36.4,359.4v179.3H4.3V359.4H36.4z M20.2,326.9L20.2,326.9c-5.7,0-10.6-1.9-14.7-5.7
											c-4-3.8-6-8.9-6-15.3l0,0c0-6.4,2-11.6,6-15.4c4-3.8,8.9-5.7,14.7-5.7l0,0c5.7,0,10.6,1.9,14.7,5.7c4,3.8,6,8.9,6,15.4
											l0,0c0,6.4-2,11.5-6,15.3C30.8,325,26,326.9,20.2,326.9z M121.6,303.8v55.5h67.9v26.9h-67.9V469c0,9,0.7,16.4,2.1,22.2
											c1.4,5.9,3.4,10.5,6.2,13.8c2.8,3.4,6.2,5.7,10.3,7.1c4.1,1.4,9,2.1,14.5,2.1l0,0c9.7,0,17.4-1.1,23.2-3.3
											c5.9-2.2,10-3.7,12.3-4.6l0,0l6.2,26.6c-3.2,1.6-8.9,3.6-16.9,6.1c-8,2.4-17.2,3.6-27.6,3.6l0,0
											c-12.2,0-22.3-1.6-30.2-4.7c-7.9-3.1-14.3-7.7-19.1-13.9c-4.8-6.2-8.2-13.9-10.2-23c-1.9-9.1-2.9-19.6-2.9-31.5l0,0v-160
											L121.6,303.8z M272,515.6L272,515.6c13.1,0,22.8-1.7,29.1-5.2c6.3-3.4,9.5-9,9.5-16.6l0,0c0-7.8-3.1-14-9.3-18.6
											c-6.2-4.6-16.4-9.8-30.7-15.5l0,0c-6.9-2.8-13.5-5.6-19.9-8.5c-6.3-2.9-11.7-6.2-16.3-10.1c-4.6-3.9-8.3-8.6-11-14.1
											c-2.8-5.5-4.1-12.3-4.1-20.3l0,0c0-15.9,5.9-28.5,17.6-37.8c11.7-9.3,27.7-13.9,47.9-13.9l0,0c5.1,0,10.1,0.3,15.2,0.8
											c5.1,0.6,9.8,1.3,14.1,2.1c4.4,0.8,8.2,1.7,11.5,2.6c3.4,0.9,6,1.7,7.8,2.4l0,0l-5.9,27.6c-3.4-1.8-8.9-3.7-16.2-5.7
											c-7.4-1.9-16.2-2.9-26.6-2.9l0,0c-9,0-16.8,1.8-23.5,5.3c-6.7,3.6-10,9.2-10,16.8l0,0c0,3.9,0.7,7.4,2.2,10.3
											c1.5,3,3.8,5.7,6.9,8.1c3.1,2.4,7,4.7,11.6,6.8c4.6,2.1,10.1,4.3,16.6,6.6l0,0c8.5,3.2,16.1,6.4,22.8,9.4
											c6.7,3.1,12.3,6.8,17,10.9c4.7,4.1,8.4,9.1,10.9,15c2.5,5.9,3.8,13.1,3.8,21.6l0,0c0,16.6-6.2,29.1-18.5,37.6
											c-12.3,8.5-29.8,12.8-52.6,12.8l0,0c-15.9,0-28.3-1.3-37.2-3.9c-9-2.7-15.1-4.7-18.3-6.1l0,0l5.9-27.6
											c3.7,1.4,9.5,3.4,17.6,6.2C247.9,514.2,258.6,515.6,272,515.6z M414,303.8v55.5h67.9v26.9H414V469c0,9,0.7,16.4,2.1,22.2
											c1.4,5.9,3.4,10.5,6.2,13.8c2.8,3.4,6.2,5.7,10.3,7.1c4.1,1.4,9,2.1,14.5,2.1l0,0c9.7,0,17.4-1.1,23.3-3.3
											c5.8-2.2,9.9-3.7,12.2-4.6l0,0l6.2,26.6c-3.2,1.6-8.9,3.6-16.9,6.1c-8,2.4-17.2,3.6-27.6,3.6l0,0
											c-12.2,0-22.2-1.6-30.1-4.7c-8-3.1-14.3-7.7-19.2-13.9c-4.8-6.2-8.2-13.9-10.1-23c-2-9.1-3-19.6-3-31.5l0,0v-160
											L414,303.8z M676.1,449L676.1,449c0,14.3-2.1,27.1-6.2,38.6c-4.1,11.5-9.9,21.4-17.4,29.7c-7.5,8.3-16.4,14.6-26.8,19.1
											c-10.3,4.5-21.6,6.8-33.8,6.8l0,0c-12.2,0-23.5-2.3-33.8-6.8c-10.3-4.5-19.2-10.8-26.7-19.1c-7.5-8.3-13.3-18.2-17.4-29.7
											c-4.1-11.5-6.2-24.4-6.2-38.6l0,0c0-14,2.1-26.8,6.2-38.4c4.1-11.6,10-21.6,17.4-29.9c7.4-8.3,16.3-14.7,26.7-19.2
											c10.3-4.5,21.6-6.7,33.8-6.7l0,0c12.2,0,23.5,2.2,33.8,6.7c10.3,4.5,19.3,10.9,26.8,19.2c7.4,8.3,13.2,18.2,17.4,29.9
											C674,422.2,676.1,435,676.1,449z M642.6,449L642.6,449c0-20.2-4.5-36.3-13.6-48.1c-9.1-11.8-21.5-17.7-37.1-17.7l0,0
											c-15.6,0-28,5.9-37,17.7c-9.1,11.9-13.7,27.9-13.7,48.1l0,0c0,20.2,4.6,36.3,13.7,48.1c9.1,11.9,21.4,17.8,37,17.8l0,0
											c15.6,0,28-5.9,37.1-17.8C638.1,485.3,642.6,469.3,642.6,449z M787.5,355.6L787.5,355.6c2.8,0,5.9,0.2,9.4,0.5
											c3.6,0.4,7.1,0.8,10.6,1.4c3.4,0.6,6.6,1.2,9.4,1.7c2.9,0.6,5,1.1,6.4,1.6l0,0l-5.5,27.9c-2.5-0.9-6.7-2-12.6-3.3
											c-5.8-1.2-13.4-1.9-22.6-1.9l0,0c-6,0-11.9,0.6-17.8,1.9c-5.8,1.3-9.7,2.2-11.5,2.6l0,0v150.7h-32.1V366.9
											c7.6-2.8,17-5.4,28.3-7.8C760.8,356.8,773.4,355.6,787.5,355.6z M844.4,449.4L844.4,449.4c0-15.9,2.3-29.7,6.9-41.6
											c4.6-11.8,10.7-21.6,18.3-29.5c7.6-7.8,16.3-13.7,26.2-17.6c9.9-3.9,20-5.9,30.3-5.9l0,0c24.1,0,42.6,7.5,55.5,22.6
											c12.9,15.1,19.3,38,19.3,68.8l0,0c0,1.4,0,3.1,0,5.3c0,2.2-0.1,4.2-0.3,6.1l0,0H877.8c1.4,18.6,6.8,32.8,16.2,42.4
											c9.4,9.7,24.1,14.5,44.1,14.5l0,0c11.3,0,20.7-1,28.4-3c7.7-1.9,13.5-3.8,17.4-5.7l0,0l4.5,26.9
											c-3.9,2.1-10.8,4.3-20.6,6.6c-9.7,2.3-20.8,3.4-33.2,3.4l0,0c-15.6,0-29.2-2.4-40.6-7.1c-11.4-4.7-20.7-11.2-28.1-19.5
											c-7.4-8.3-12.8-18.1-16.4-29.5C846.1,475.4,844.4,462.9,844.4,449.4z M878.5,431.8h89c0.2-14.5-3.4-26.4-10.9-35.7
											c-7.4-9.3-17.7-13.9-30.8-13.9l0,0c-7.4,0-13.9,1.4-19.5,4.3c-5.6,2.9-10.4,6.6-14.3,11.2c-3.9,4.6-7,9.9-9.2,15.9
											C880.6,419.5,879.2,425.6,878.5,431.8L878.5,431.8z"/>
									</g>
								</g>
							</g>
						</g>
					</g>
				</g>
			</g>
			<path class="st0" d="M-0.5,352.4V3.8H1001v348.6h-23.3V27.1H22.8v325.3H-0.5L-0.5,352.4z M-0.5,659.8v348.6H1001V659.8h-23.3
				v325.3H22.8V659.8H-0.5L-0.5,659.8z"/>
		</g>
		<rect x="-0.5" y="-0.3" class="st1" width="1001.5" height="1012.8"/>
	</g>
</g>
</svg>
